<svg id="Layer_1" data-name="Layer 1" xmlns="http://www.w3.org/2000/svg" viewBox="0 0 177.74 76.74"><defs><style>.cls-1{fill:#825527;}</style></defs><title>righttalkbubble</title><path class="cls-1" d="M48.42,103.94c-.7.09-.38.46-.47.55C49.1,104.19,48.37,103.84,48.42,103.94Z" transform="translate(-46.56 -47.1)"/><polygon class="cls-1" points="13.2 53.87 13.02 54.07 14.65 53.36 13.2 53.87"/><path class="cls-1" d="M70.51,99.08c-1.14-.52-3.88.8-5.84.89l-.34-.11-.76.72A63.56,63.56,0,0,1,70.51,99.08Z" transform="translate(-46.56 -47.1)"/><path class="cls-1" d="M76.51,99.59c-.4-.21,1.2-.45-1.35.15l.25,0C75.64,99.72,76,99.67,76.51,99.59Z" transform="translate(-46.56 -47.1)"/><path class="cls-1" d="M75.41,99.77c-1.13.22.78.1,0,0Z" transform="translate(-46.56 -47.1)"/><path class="cls-1" d="M80.61,98.69l-1.45.51c.34.11,1.67-.09,1.2.11C81.87,98.9,81.53,98.8,80.61,98.69Z" transform="translate(-46.56 -47.1)"/><path class="cls-1" d="M81.94,97.93l-.75.24C81.33,98.21,81.54,98.2,81.94,97.93Z" transform="translate(-46.56 -47.1)"/><path class="cls-1" d="M79.58,98.67l1.6-.51c-.24-.07-.3-.3-.74.21C80.54,98.14,80.25,98.4,79.58,98.67Z" transform="translate(-46.56 -47.1)"/><path class="cls-1" d="M78.63,98.73c-.86,0-2,.09-.51-.42C75.29,98.91,75.8,99.33,78.63,98.73Z" transform="translate(-46.56 -47.1)"/><path class="cls-1" d="M70.93,98.26H69.77l-.93.41C69.31,98.45,71,98.47,70.93,98.26Z" transform="translate(-46.56 -47.1)"/><path class="cls-1" d="M85.3,98.44a3.89,3.89,0,0,0,.54-.71l-.11-.09-.2.11.06.07A1.23,1.23,0,0,1,85.3,98.44Z" transform="translate(-46.56 -47.1)"/><path class="cls-1" d="M85.84,97.74a1.9,1.9,0,0,1,.3.38C86.11,97.51,86,97.53,85.84,97.74Z" transform="translate(-46.56 -47.1)"/><polygon class="cls-1" points="35.51 49.99 32.9 51.01 36.03 49.9 35.51 49.99"/><polygon class="cls-1" points="39.1 55.27 38.66 54.36 39.35 55.99 39.1 55.27"/><path class="cls-1" d="M86.12,106.59c-.36-.67-.4,1-.65.28a14.49,14.49,0,0,0,.81,3A10.09,10.09,0,0,1,86.12,106.59Z" transform="translate(-46.56 -47.1)"/><path class="cls-1" d="M86.74,111.28c-.11-.46-.28-.93-.47-1.45A8.16,8.16,0,0,0,86.74,111.28Z" transform="translate(-46.56 -47.1)"/><path class="cls-1" d="M86.22,99.82a2.24,2.24,0,0,0-.31,1.35l.36-.7Z" transform="translate(-46.56 -47.1)"/><path class="cls-1" d="M86.29,100.45v0l.11,1.42Z" transform="translate(-46.56 -47.1)"/><path class="cls-1" d="M86.21,99.65v.17C86.26,99.75,86.27,99.71,86.21,99.65Z" transform="translate(-46.56 -47.1)"/><path class="cls-1" d="M85.42,96.9c.28-.17.76-.38,1.1-.58s.54-.39,0-.48a.77.77,0,0,0-.4.48C86,96.47,85.85,96.64,85.42,96.9Z" transform="translate(-46.56 -47.1)"/><path class="cls-1" d="M86.66,98.79v-.95c-.1.09-.25.31-.38.16A7.44,7.44,0,0,1,86.66,98.79Z" transform="translate(-46.56 -47.1)"/><polygon class="cls-1" points="40.32 52.54 40.11 51.69 40.13 52.35 40.32 52.54"/><path class="cls-1" d="M86.86,108.21a12.78,12.78,0,0,1,.47,2.52c0-1-.07-2.07-.16-3.07C87,107.54,86.74,107.13,86.86,108.21Z" transform="translate(-46.56 -47.1)"/><path class="cls-1" d="M86.62,104.44l0,.17C86.68,104.5,86.69,104.41,86.62,104.44Z" transform="translate(-46.56 -47.1)"/><path class="cls-1" d="M88.37,121.76l0-.3h-.07Z" transform="translate(-46.56 -47.1)"/><path class="cls-1" d="M87.23,107.49a3.77,3.77,0,0,0-.31-1.64c.1.57.18,1.17.24,1.81C87.23,107.73,87.27,107.74,87.23,107.49Z" transform="translate(-46.56 -47.1)"/><path class="cls-1" d="M87.19,113.86c.05-.4.08-.86.11-1.34C87.2,112.92,87.07,113.73,87.19,113.86Z" transform="translate(-46.56 -47.1)"/><path class="cls-1" d="M86.56,104.87l0-.11C86.47,105,86.51,105,86.56,104.87Z" transform="translate(-46.56 -47.1)"/><path class="cls-1" d="M86.56,104.87a7,7,0,0,0,.36,1c-.08-.46-.16-.89-.26-1.25A1.25,1.25,0,0,1,86.56,104.87Z" transform="translate(-46.56 -47.1)"/><path class="cls-1" d="M92.9,120.15a4,4,0,0,1-2.4.53,8.69,8.69,0,0,1,0-1.92c-.22-.75-.63-.85-1-.39a6.82,6.82,0,0,0-1,3.09c.13,0,.25-.1.5.94l1.53-.15c-.21-.06-.69-.12-1.21-.19,0-1.76.07-3.65.44-2.45a14.39,14.39,0,0,1,.22,1.73c.88,0,.75.26,1.71.4-.49-.25.58-.43,1.53-.63s1.77-.45,1.53-.81l-2.05.26C92.64,120.43,93.39,120.25,92.9,120.15Z" transform="translate(-46.56 -47.1)"/><path class="cls-1" d="M88,116.54l-.12-.72a8.11,8.11,0,0,1-.07,1.16c0,.11,0,.18,0,.33l0,.54-.08,1.31c.38,2,.56,2.25.69,2.29l-.43-5.15Z" transform="translate(-46.56 -47.1)"/><path class="cls-1" d="M87.57,112.6c.48.52.83,2.23,1.19,1.13-.23-2.11-.5-1.45-.8-2.69.43,3.4-.33-1-.34,1.53-.14-.66-.22-1.26-.29-1.83,0,.62,0,1.22,0,1.78l0-.08v0h0c0-.15.07-.2.05,0a.48.48,0,0,1,0,.07.44.44,0,0,1,.18.14c0,1-.1.17-.18-.14,0,0,0,0-.07,0h0l.56,3.39A30.83,30.83,0,0,0,87.57,112.6Z" transform="translate(-46.56 -47.1)"/><path class="cls-1" d="M88.11,95.39a.35.35,0,0,1-.08.2C88.1,95.74,88.14,95.8,88.11,95.39Z" transform="translate(-46.56 -47.1)"/><path class="cls-1" d="M88,96.89a1.48,1.48,0,0,1-.28-1c.06-.73.19-.2.32-.36-.09-.21-.22-.6-.33-.52s0,0,0,0a2.17,2.17,0,0,0-.13.82l.07.14a9.33,9.33,0,0,1-.23,1.84c-.12.48-.24.73-.28.66A3,3,0,0,0,88,96.89Z" transform="translate(-46.56 -47.1)"/><path class="cls-1" d="M87.89,104.73l.48,2.82.23-1.48-.22.09C88.32,104.54,88.08,104.91,87.89,104.73Z" transform="translate(-46.56 -47.1)"/><path class="cls-1" d="M88.22,122.48a4.08,4.08,0,0,1-.48-.26l.4,1.05,1.77-.35-1.57.13Z" transform="translate(-46.56 -47.1)"/><path class="cls-1" d="M93.86,123l-.26.39a7.93,7.93,0,0,0,1.22-.24l-.42-.08-.21,0Z" transform="translate(-46.56 -47.1)"/><path class="cls-1" d="M210.47,51.89l-.84.11A7,7,0,0,0,210.47,51.89Z" transform="translate(-46.56 -47.1)"/><path class="cls-1" d="M216.54,51.92l.15-.2C216.41,51.83,216.29,51.91,216.54,51.92Z" transform="translate(-46.56 -47.1)"/><path class="cls-1" d="M185.13,123c1.22.37,2.59.94,2.44.5l-.38-.43A7.84,7.84,0,0,1,185.13,123Z" transform="translate(-46.56 -47.1)"/><path class="cls-1" d="M221.34,94.4l-.13.36.41.83Z" transform="translate(-46.56 -47.1)"/><path class="cls-1" d="M219.55,93.54l.28-1.61A12.06,12.06,0,0,0,219.55,93.54Z" transform="translate(-46.56 -47.1)"/><path class="cls-1" d="M177.28,52.35l-1,.44C177.83,52.79,177.16,52.57,177.28,52.35Z" transform="translate(-46.56 -47.1)"/><path class="cls-1" d="M132,122.89a19.86,19.86,0,0,0,2.63.26C133.35,122.9,132.32,122.53,132,122.89Z" transform="translate(-46.56 -47.1)"/><path class="cls-1" d="M212.86,47.28c-.51.08-.73.17-.72.26C212.67,47.47,213,47.39,212.86,47.28Z" transform="translate(-46.56 -47.1)"/><path class="cls-1" d="M137.66,123.15l-.56-.1a19.25,19.25,0,0,1-2.49.1A6.45,6.45,0,0,0,137.66,123.15Z" transform="translate(-46.56 -47.1)"/><path class="cls-1" d="M88.18,79.13c0,.14,0,.31-.05.43S88.19,79.42,88.18,79.13Z" transform="translate(-46.56 -47.1)"/><path class="cls-1" d="M55.27,94.84c.28-.2.77-.48,1.22-.76A8.16,8.16,0,0,0,55.27,94.84Z" transform="translate(-46.56 -47.1)"/><path class="cls-1" d="M108.91,123.24c-.79,0-.12,0,0,0Z" transform="translate(-46.56 -47.1)"/><path class="cls-1" d="M105.08,121.52c.17,0,.29-.11.31-.21A.52.52,0,0,1,105.08,121.52Z" transform="translate(-46.56 -47.1)"/><path class="cls-1" d="M145.51,120.45h.07C145.34,120.37,145.38,120.38,145.51,120.45Z" transform="translate(-46.56 -47.1)"/><path class="cls-1" d="M107.72,123c.3.05.64.1,1,.13C108.57,123.14,108.26,123.09,107.72,123Z" transform="translate(-46.56 -47.1)"/><path class="cls-1" d="M107.88,123.25l-.69,0C107.09,123.28,107.18,123.32,107.88,123.25Z" transform="translate(-46.56 -47.1)"/><path class="cls-1" d="M110,123.21c-.45,0-.87,0-1.27,0,.15,0,.22.05.18.07Z" transform="translate(-46.56 -47.1)"/><path class="cls-1" d="M121.42,50.83l-.17,0C120.45,51,120.8,50.94,121.42,50.83Z" transform="translate(-46.56 -47.1)"/><path class="cls-1" d="M205.62,118.5l-.09,0,.12,0Z" transform="translate(-46.56 -47.1)"/><path class="cls-1" d="M208.44,118.18a4.42,4.42,0,0,1-2.8.36l.94,1.25Z" transform="translate(-46.56 -47.1)"/><path class="cls-1" d="M195.92,52l2,.39c-2.4.64-4.13.42-2.27,1,.28-1.36,7.72-.14,8-1.5l1.31.29c-.37,0-.44.07-.81.05,2.55.65,1.89-1,5.17-.79,1.14.1,1.94.3,1.16.46l2.55-.34c.74,0,.56.26-.18.24l3.88-.11,0,0,.53-.18.32-.1a1.34,1.34,0,0,0,.2-.1,5.85,5.85,0,0,1,.77-.31c.49.2-.35.14-.25.31q.62-.16,1.42-.33c.1.18-.22.35-.57.47a2.76,2.76,0,0,1-1.06.17c.15.42.15.55.29.55s.34-.14.64-.23a1.34,1.34,0,0,1-.13,1.21q-.09-.32-.17-.55c-.38.43-.51.56-.59.68l0,0s0,.2,0,.3l-.07.71c-.05.49-.13,1-.25,1.6.13-.27.43-1.42.74-2.21.16-.49.32-.47.46-.52a.24.24,0,0,1,.2,0,.3.3,0,0,1,.08.09,2.41,2.41,0,0,1,.07.35,7.29,7.29,0,0,0,.12,2.78c-.48,0-.36,1.24-.34,2.78l-.64-.1c.18,1.66.51,1.53.8,2.51-.06,1.85-.56,2.24-1,2.68-.1,3,.79-2.05.92,1.46a28.59,28.59,0,0,0,.4,7.16c-.22,1.73-.39-.3-.57.32l.51,1.53c0,.37-.17.25-.25.19.2,1.29.64.11.81,2.14.7.55-1,4.17-.23,6.68-.18.62-.39-.3-.64-.11a39.35,39.35,0,0,0,1.09,5.78l-.42,2.41c.48-1.77,1,.49,1.52,2.47.23-.63.44-1.17.53-1.53l.34,3.16c-.11.38-.33.06-.59-.45.05.22.1.42.15.58-.24,1.13-.61.54-1-.27l.4-1.14c-.39-.78-.82-1.51-1.19-1.35a4.76,4.76,0,0,1,.17,1c-.11-.2-.2-.33-.26-.24s.07.44.24,1l-.71.72.28.17-.45,4.14c.72,3,1.77,5.54,2.07,10.24-.52-1.17-.85-.25-1.47-.31.66-1.28-.28-3.64-.15-6.08-.07,1.27-.36,1-.47.67l.6,4.34c-.51-.1-.38.92-.59,2.06,1-.86.67,3.24,1,5-.34.11-.68-.31-.6-2.47a3.56,3.56,0,0,0,.22,2.72l.11.29.11.19a2,2,0,0,1,.17.44,1.42,1.42,0,0,1-.08,1c0-.36,0-.54-.13-.73a4.67,4.67,0,0,1,.11,1.7c-.62-.06-1.06-.19-.95-.34h.3c-.53,0-1.16,0-1.83,0l-1.7,0-1.77.07c-2.29.12-4.21.36-4.47.79a3.39,3.39,0,0,1,.67-1.2l-6.24,2.86c.55-.73-1.56-2.47,1.34-2.88a11.94,11.94,0,0,0-3.62,0c.57.1,1.42,1.06.64,1.12a24.33,24.33,0,0,0-4.1-1.13c.85.16-.09,1.3-1.44,1.27.21-.17-.11-1.13.38-1.25L194,119.69c.84-.2.15-1-.6-1.27.35.22-2.89,0-3.79.09l1.42.26c-3.78-.17-3.73,1.58-7.48,1.52.45-.23,1.12-1.43-.79-1.57-.87.58-3.87,2.77-7.19,3.21l-.64-.33-2.55.38a60.07,60.07,0,0,1,8.46-3.4c-1.41-.26-.39-.39-2.51-.36-.75-.31,1.15-.47,1.78-.49l-4.93-.2c.22.67-3.77.67-3.58,1.23l5.36-.7c.22.67-3.1,1.91-6.59,1.79-.89-.27.66-1.2.59-1.42a11.61,11.61,0,0,1-3.64.28l1.48-.36c-1.95-.25-3.17.89-5.51.25-.81,0-2.41-.87-2.55-.47,1.32.77,1.57,3.14.7,3.72a49.67,49.67,0,0,1-5.16-1.11c-1.33-.6,2-1.43.86-2,0,.18-.78.41-1.09.48-.85-.16.35-.57-1.49-.49-.31.68-3.75-.06-.87.58-1.8.19-1.91-.14-4-.11.67.44-1.9,1.5-3.7,1.69.11-.17-.3-.4-.5-.5-3.69-.06-5.67-.37-9.12-.38-.32-.16-2-.36-1.27-.66a6.57,6.57,0,0,1-2,.37c-2.06-.59,2.37-.09.8-.8-.13.4-2.75.55-4.26.79.47.61,3.49.12,5-.13,0,.84-2.63,1.73-6.23,2.12-2.86.21-1.24-.55-1.74-.43-5.37-.15-4.58,1.47-9,.86-1.77-.54-.08-1.07-.47-1.46,2.33-.2,3.58.34,5.16.32l-1.94-.25a9.8,9.8,0,0,1,3.14-.16c-1.48-.48-9.08-.09-13.22-.54-.74.18-2,.37-1.41.58l1.31-.07c1.21.43-2.47.6-.81.8a21.19,21.19,0,0,1-6.21.54l-.47-.61a4.25,4.25,0,0,0,2.31.18c-1,.27-3.8-.83-4.93,0l1.74.42a23.26,23.26,0,0,1-6.14.77c1,.61.51-.07,2.07.64-1.35-.88,5.61,0,3.44-.89,1.6.82,2.77.35,4.86,1-.06-.2-.74-.39,1.1-.29a2.14,2.14,0,0,1,.4-.18l.12,0-.1,0c.08,0,.09,0,0,0a2.77,2.77,0,0,1-.94-.31c.91-.46,3.84-.45,4.84-.69,1.09.1-.46.23.14.45l1.48-.36c.15.45,2.9.75.33,1l2.32,0a15,15,0,0,0,4.4.16c1.09.1,2.76-.5,1.81-.15l3.64-.28,0,.11c3.59.06,7.38-.74,11.48.07a25,25,0,0,1,4.48-.12l.39.39c1.55-.14,4.66.39,5.32,0,1.67,1,7.52.23,10.25.41l.1-.51a58.09,58.09,0,0,0,6-.32l-.14-.45c2-.37,5.16.32,8.34.27a3,3,0,0,1-1.59,0c3.8,1,8-.74,11.45,0a5.23,5.23,0,0,1,2.08,0l-.21,0h.35c.38.08.77.17,1.19.24a6.86,6.86,0,0,0-1-.24c.66,0,1.66-.06,2.65-.18l.42.48h.23c1,.18.78-.23.26-.59a8.78,8.78,0,0,0,1.3-.29c.78.78,2.58-.26,3.65.57.66-.4,4.94-.3,5.47-1.16,0,.11.32.16-.21.17a10,10,0,0,0,3.18,0l.47.61,2.39-.82c1.45.37,2.06.59.61,1.06,3.49-.73,2.83-.27,5.8-1l-.14.4c1.06,0,2.75-.55,3.39-.22a13.66,13.66,0,0,0,3.06.35l1.14,0,1.67,0,3.65,0,0-3.62,0-1.85,0-1.3c.05-1.71.14-3.37.31-4.85-1.17,1.18.52-2.83-.38-3.07.28-.35.43-1.2.67-.22-.27-3.11.44-4.67-.32-6.81.28-.36.4.66.57.35a2.55,2.55,0,0,1-.07-1.31c.16-.32.23.45.35.95,0-3.17-.9-3.49-1.69-3.73a4.76,4.76,0,0,0-.2-3.57c.26-.56.53-1.49.63.48,0-1.11.38-6.78-.26-6.89a4.82,4.82,0,0,0,0-1.84c0-2.49.1-2.71,0-5.15l-.1.68c-.77-1-.17-2-.26-4l.08.06c.56-4.52-.27-2,.37-6.41l-.48.24c-1-.42.61-3.95.21-6.54l-.27.93c-.35-1.41,1.4-3.95,1.53-5.37.09-.31.14.49.21.92.61-3.71-.63-.48-.77-3.25.34-.51.86.66.93-1.21a9.38,9.38,0,0,0-.23-2.53c-.18-1.95-.4-4-.4-5.88a14.68,14.68,0,0,1-2.5-.18c.77.26,1.29.52-.65.72a20.82,20.82,0,0,1-2.38-.1c-.51,0-.76-.08-1.1-.13l-1-.13a6.94,6.94,0,0,0-3.48.19c-.25-.07-.35-.14-.36-.21-1.51.21-4.9.35-5.8.8-1.39-1.66-9.37.81-9.33-.72l-4.63.08.12-.16a11.54,11.54,0,0,0-5.05.63c-.68-.1-.18-.25-.13-.33a21.33,21.33,0,0,0-8.39.52l-.38-.5c-1,.29-6.26-.78-10.5-.2,0-.06.13-.15.47-.22-4.78.58-11.43-1.37-13.18.43l-3.15.44c4.08.14-.61.78,1.07,1.08-1.6.11-4.15-.54-2.18-.64l.31.09c.72-.94-5.07-.33-5-1-8,0-15.84-.47-23.36-.51l.87.73-2.62,0c-.69-.17-.92-.57.95-.54a4.85,4.85,0,0,0-3.19.51c-3.66-.3,1.43-.85.31-.87l-1.53.05.34.09a8.74,8.74,0,0,1-3.59.58c-1.42-.15-.73-.45-1.29-.48,0-.05-.19-.08-.86,0l-3.3-.06,1.32.58c-1.46.28-3.11,0-1.58.62-2.24-1-12.32-.36-13.69-.67a19.27,19.27,0,0,1-3.12.36c-.54,0-1.09,0-1.66,0l-2.12,0c.89.12,1.3.77-1.18.69.14-.64-1.08-.8-2.91-.9a23,23,0,0,1-.65,5.48c.64-1.56.16,6.15,1.07,3.7-.11,1.8-.5.11-.82,1.48.52,4.29-.34,9.46-.16,14.77.18.08.44-.81.71.33l-.88,2.8c0,.25.09.45.17.49a3.11,3.11,0,0,1,.27.26.68.68,0,0,1,0,.85l-.21,0,.3,0a.17.17,0,0,1,.2.11s0,.07-.11.13c-.41.18-.76.33-1.15.52l-1.74.92c-1.15.63-2.3,1.28-3.44,2C75.51,83.19,73.25,84.6,71,86a96.08,96.08,0,0,1-14.14,7.45c1.41-.43.6.08-.33.65.65-.29.21.38.45.52L52.8,96.27c-.36,1-4.07,2.44-4.14,3.22l1.15-.81c-1.23,1.59,3.09.11,3.34,1.08,1.37-1.79,5.38-1.7,7.71-4.48.75-.21-.4.59.06.58a7.19,7.19,0,0,1,3.17-2.22l-.14.2c4.65-2.85,6.87-3.68,12.29-6.55l-.63-.18a10,10,0,0,1,2.07-.83c.94-1.38-3.21,1.84-2.42.46,2-.05,8-4.69,9.58-4.34,2.58-1.51-1.11,0,1.46-1.49l.95-.21q.13-.25.24-.49L87.4,80c.06-1.84.43-2.84.68-2.94,0,.52.07,1.49.09,2.07,0-.34.07-.72.1-1.14l0-1.2c0-.54,0-1.12,0-1.65a19.4,19.4,0,0,1-.09-2.3L88,74.78c-.28-5.53.11-12.27-.49-17.61l-.22.41a15.72,15.72,0,0,1-.06-3.72l.12-1.07a9.5,9.5,0,0,0,0-1.46l.05.14c0-.12-.07-.24-.1-.38a4,4,0,0,1,1.62-.21c-.32.13.07.26.35.39s.46.26.14.41l.18,0,.36,0,.62-.07.88-.11a4.06,4.06,0,0,0,.86-.19,10.65,10.65,0,0,1,2-.73l.67.37a7.75,7.75,0,0,1,3.31-.61c-1.83.32,1.43.56-.63,1,4.69.81,7-.82,9.12.37,2.15-1-4.06-.57-2.85-.79-1-.34,1.78-.77,3.25-.66s2.55,1.31,6.32,1.29c-.37,0-.4.07-.77.07,1.41.26,2.76-.35,4.49.07,1-.62,2.25,0,2.53-.76l-3.46.18c2-.21,3.8-1.13,7-.68a8.51,8.51,0,0,1-1.87.49c.94.23,1.82-.15,2.8.09-.28.79-4.2.17-6.3.78,1,.33,4-.57,2.92.28,1.52-1.09,3.71.14,6.27-.7l-.17.47a9.9,9.9,0,0,1,2-.29l-1.35.62c2.07-.52,4,.46,6,.17-4.15,0-.93-.57-2.69-.92,5.12-.64,2.94,1.24,8.67,1-.78.07-2.91-.28-1.7-.5a16,16,0,0,1,3.2.53c3.8-.1-.58-.49,1-.78,1.29.58,1.86-.24,3.53-.42v.48c4.33.31,1.15-1,5-.63l-1.65.67,2-.17-.42.55a15.38,15.38,0,0,1,5.06-.15c-.5-.34.28-.87,2.2-.89,1.31.29-.73.46,2,.39a2.67,2.67,0,0,1-2.47.24c-.12.16-.6.3-.73.46a20.77,20.77,0,0,0,4.52.07,5.81,5.81,0,0,1-1.06-.11l3.94-.67c.62.18.13.33-.36.47.8-.05,1.35-.27,2.52-.32-.3.39-.23.8-1.89,1l3.75-.44c.25.17,1.93.47,1.44.61,2.08.23,5.1-.76,7.86-.46a3.05,3.05,0,0,1,1-.2c2.59.09,4.89.57,8,0l1.74.7c2.41-.16-2.36-.89,1.65-1.15,2.84-.22,1.06.6,2.05.79a13.77,13.77,0,0,1,6.47-.5A23.43,23.43,0,0,1,195.92,52Zm23.34,1.65a1.71,1.71,0,0,0-.21-.61.35.35,0,0,1,.08-.42c.28,0,.35.14.33.3a1,1,0,0,1-.08.27l-.06.14A2.36,2.36,0,0,0,219.26,53.66Zm1.16,45.11a3.48,3.48,0,0,1,.1-1.83A7.21,7.21,0,0,1,220.42,98.77ZM117.53,122.85l.06,0C118.88,123,118.42,122.94,117.53,122.85Zm-2.66-.21c-.27.07-.25.13-.14.2a3.62,3.62,0,0,1,1.46-.1A1.94,1.94,0,0,0,114.87,122.64ZM113,47.58l.52.13C112.36,47.85,112.68,47.72,113,47.58Z" transform="translate(-46.56 -47.1)"/><path class="cls-1" d="M219.76,93.65a.45.45,0,0,1,.26-.25C219.94,93.18,219.84,93.18,219.76,93.65Z" transform="translate(-46.56 -47.1)"/><path class="cls-1" d="M177.46,52.27h-.09a.22.22,0,0,0-.09.09Z" transform="translate(-46.56 -47.1)"/><path class="cls-1" d="M156.13,118.55a3.73,3.73,0,0,1,1.06.25C157.21,118.68,157,118.58,156.13,118.55Z" transform="translate(-46.56 -47.1)"/><path class="cls-1" d="M100.76,123.46l1.71-.13a5.41,5.41,0,0,1-1.54-.16C101,123.29,101.29,123.45,100.76,123.46Z" transform="translate(-46.56 -47.1)"/><path class="cls-1" d="M90.24,115.84c-.08-.24-.06-.53-.14-.76l-.22.09C90,116.22,90.25,116.95,90.24,115.84Z" transform="translate(-46.56 -47.1)"/><path class="cls-1" d="M99.18,121.85c-.14-.41-1.21-.27-2.4-.19H97C96.64,122.23,97.91,122,99.18,121.85Z" transform="translate(-46.56 -47.1)"/><path class="cls-1" d="M96.5,121.67a10.85,10.85,0,0,1-1.1,0C95.26,121.91,95.84,121.73,96.5,121.67Z" transform="translate(-46.56 -47.1)"/><path class="cls-1" d="M111.49,122.91c-.57-.1-.36.52-.68.35C110.18,123.78,114.59,122.63,111.49,122.91Z" transform="translate(-46.56 -47.1)"/><polygon class="cls-1" points="51.66 73.41 52.08 73.91 52.75 73.51 51.66 73.41"/><path class="cls-1" d="M107.65,120.88l-1.91-.14c0,.08-.21.13-.51.17A9.31,9.31,0,0,0,107.65,120.88Z" transform="translate(-46.56 -47.1)"/><path class="cls-1" d="M105.23,120.92a7.35,7.35,0,0,0-1.54.08C104,121,104.73,121,105.23,120.92Z" transform="translate(-46.56 -47.1)"/><polygon class="cls-1" points="54.27 73.26 54.83 73.37 56.18 73.4 54.27 73.26"/><path class="cls-1" d="M128.17,121l2.08-.14c.21-.17-.36-.28-1.13-.21C128.63,120.75,127.85,120.81,128.17,121Z" transform="translate(-46.56 -47.1)"/><path class="cls-1" d="M121.87,119.61a2.17,2.17,0,0,1,.92.38l.06-.62Z" transform="translate(-46.56 -47.1)"/><path class="cls-1" d="M127.95,119.46c.21-.17,3-.49.38-.46C128.12,119.18,126,119.32,127.95,119.46Z" transform="translate(-46.56 -47.1)"/><polygon class="cls-1" points="112.79 73.14 112.26 73.15 112.34 74.17 112.79 73.14"/><path class="cls-1" d="M187,117.81c-2.47-.24-.59.63-2.82.32-.58.24,1.82.25,1.23.46C186.93,118.34,187.71,118.48,187,117.81Z" transform="translate(-46.56 -47.1)"/><path class="cls-1" d="M185.44,118.59c-.24,0-.49.09-.76.15A4.55,4.55,0,0,0,185.44,118.59Z" transform="translate(-46.56 -47.1)"/><polygon class="cls-1" points="3.42 50.21 1.95 50.83 3 50.61 3.42 50.21"/><path class="cls-1" d="M47.73,99.51l-.65-.37-.53,1A3.32,3.32,0,0,1,47.73,99.51Z" transform="translate(-46.56 -47.1)"/><path class="cls-1" d="M217.95,58.07l.16.12a2.79,2.79,0,0,0,.21-1.36Z" transform="translate(-46.56 -47.1)"/><polygon class="cls-1" points="161.91 5.42 162.28 5.43 161.59 4.85 161.91 5.42"/><path class="cls-1" d="M190.39,53.27c.74,0,1.6-.11,2.35-.08C191.13,53.3,190.19,52.54,190.39,53.27Z" transform="translate(-46.56 -47.1)"/></svg>